<svg xmlns="http://www.w3.org/2000/svg" viewBox="0 0 464.6 511.9"><path d="M324.8 36.1c-25.5 11-47.7 20.6-70 30.2-59.9 25.8-59.9 25.8-47 71.6 17.4 61.5 34.7 123.1 52.4 185.9a91.42 91.42 0 0 0-72.8-12.1c-46.8 11.9-74.6 57.7-62.1 102.3s60.7 71 107.5 59.1c46.5-11.9 74.2-56.9 62.5-101.1-.3-1.3-.6-2.6-1-3.9-14.7-50-28.5-100.4-42.6-150.6-6.6-23.3-13.1-46.6-19.9-70.6 19.5-8.5 37.3-16.1 55-23.9 18.3-8.1 36.4-16.5 55.4-25.2-3.1-10.9-5.8-20.5-8.5-30.2-2.8-9.9-5.6-19.9-8.9-31.5"/><path d="M425 187.4 339.3 138c-13.1 6-25.5 11.6-38.2 17.3a6 6 0 0 1-1.2.5l107.5 62.1c29.3 16.9 29.3 59.3 0 76.2l-83.9 48.4c1.5 5.2 3 10.5 4.6 15.7l1.5 5.7a115 115 0 0 1 2.7 14.2l92.7-53.5a79.22 79.22 0 0 0 0-137.2m-312.6 277-11.2 6.5c-29.3 16.9-66-4.2-66-38.1V79.2c0-33.9 36.7-55 66-38.1L171 81.4a50.6 50.6 0 0 1 3.6-6.3c5.4-8.2 12.1-14.2 21.4-19.9l-77.2-44.6A79.21 79.21 0 0 0 0 79.2v353.5a79 79 0 0 0 118.7 68.5l20.6-11.9a122.2 122.2 0 0 1-26.9-24.9"/></svg>