<svg xmlns="http://www.w3.org/2000/svg" viewBox="0 0 512 468"><style>.st0{fill:#4e8482}.st1{fill:#00f6fc}.st2{fill:#00263f}.st3{fill:#033f60}.st4{fill:#040707}.st5{fill:#444749}.st6{fill:#231f20}.st7{fill:#fff}.st8{fill:#2489ca}.st9{fill:#1070b3}.st10{fill:#0877b9}.st11{fill:#3c99d4}</style><path d="m11.2 66.4 7.9 1.7L67 428.2l-7.9-1.8z" class="st0"/><path d="m100.4 465-7.8-1.8c-17.8-4-31.1-18.7-33.5-36.8l7.8 1.8c2.4 18.1 15.8 32.8 33.5 36.8" class="st0"/><path d="M115.8 465.6c-5.1.7-10.3.5-15.3-.6l-7.8-1.8c5 1.1 10.2 1.3 15.3.6z" class="st1"/><path d="m100 466.9-7.8-1.8c5.3 1.2 10.7 1.4 16 .6l7.8 1.8c-5.3.8-10.7.6-16-.6M454 4l7.8 1.8L19.1 68.1l-7.9-1.7z" class="st0"/><path d="m464.6 413.7 7.8 1.7-356.6 50.2-7.9-1.7z" class="st1"/><path d="m464.9 415.6 7.8 1.7L116 467.5l-7.8-1.7z" class="st0"/><path d="m454 4 7.8 1.8 47.9 360.1-7.8-1.8z" class="st1"/><path d="m455.6 1.9 7.9 1.7 48.1 362-7.8-1.8z" class="st0"/><path d="m501.9 364.1 7.8 1.8c3.2 23.9-13.4 46-37.3 49.6l-7.8-1.8c23.9-3.6 40.5-25.6 37.3-49.6" class="st1"/><path d="m454 4 47.8 360.1c3.2 23.9-13.4 46-37.3 49.6l-356.7 50.2c-23.7 3.2-45.6-13.4-48.8-37.2v-.3l-47.7-360z" class="st1"/><path d="M9.1 64.7 455.6 1.9l48.1 362c3.4 25-14 48.1-38.9 51.8l-356.7 50.2c-24.8 3.4-47.6-14-50.9-38.8v-.3zm492.8 299.5L454 4.1 11.3 66.4l47.8 360.1c3.1 23.8 24.8 40.6 48.5 37.5h.3l356.7-50.2c23.9-3.5 40.5-25.6 37.3-49.6" class="st0"/><path d="m503.8 363.8 7.8 1.8c3.4 25-14 48.1-38.9 51.8l-7.8-1.8c24.9-3.7 42.2-26.7 38.9-51.8" class="st0"/><path d="m2.1 64.5 7.9 1.8 5 38.2-7.8-1.8z" class="st2"/><path d="m444.9 2.2 7.8 1.7L10 66.3l-7.9-1.8z" class="st2"/><path d="m450 40.4 7.8 1.8L15 104.5l-7.8-1.8z" class="st3"/><path d="m444.9 2.2 7.8 1.7 5.1 38.3-7.8-1.8z" class="st3"/><path d="M0 62.9 446.5 0l5.6 42.1L5.6 104.9zm450-22.5-5.1-38.3L2.2 64.5l5.1 38.3z" class="st2"/><path d="m444.9 2.2 5.1 38.2L7.2 102.7 2.1 64.5z" class="st3"/><path d="m452.1 42.1 7.8 1.7-446.5 62.9-7.8-1.8z" class="st2"/><path d="m446.5 0 7.9 1.8 5.5 42-7.8-1.7z" class="st2"/><path d="m34.7 313.6 7.9 1.8L57 423.5l-7.9-1.7zm442.8-61.8 7.9 1.7-442.8 61.9-7.9-1.8z" class="st4"/><path d="m491.8 358.9 7.8 1.8L57 423.5l-7.9-1.7z" class="st5"/><path d="m477.5 251.8 7.9 1.7 14.2 107.2-7.8-1.8z" class="st5"/><path d="m34.7 313.6 442.8-61.8 14.3 107.1-442.7 62.9z" class="st5"/><path d="m493.9 360.5 7.9 1.8-446.5 63.4-7.8-1.7zm-14.7-110.9 7.8 1.8 14.8 110.9-7.9-1.8z" class="st4"/><path d="m32.6 312 446.6-62.4 14.7 111L47.5 424zm459.2 46.9-14.3-107.1-442.8 61.8 14.4 108.2z" class="st4"/><path d="m109.7 317.5 7.9 1.7-13.3 1.9-7.8-1.7zm-13.2 1.9 7.8 1.7 9.9 74.6-7.8-1.8z" class="st6"/><path d="m109.7 317.5 7.9 1.7 9.9 74.6-7.9-1.7z" class="st7"/><path d="m116.5 353.9 7.8 1.8-1.1.7-7.8-1.7z" class="st6"/><path d="m111.4 315.3 7.8 1.8 5.1 38.6-7.8-1.8zm4 39.4 7.8 1.7 1.3.5-7.8-1.8z" class="st6"/><path d="m119.6 392.1 7.9 1.7-13.3 1.9-7.8-1.8z" class="st7"/><path d="m109.7 317.5 9.9 74.6-13.2 1.8-9.9-74.5z" class="st7"/><path d="m121.8 393.7 7.8 1.8-17 2.4-7.8-1.8z" class="st6"/><path d="m116.7 355.1 7.8 1.8 5.1 38.6-7.8-1.8z" class="st6"/><path d="m111.4 315.3 5.1 38.6-1.1.8 1.3.4 5.1 38.6-17 2.4-10.4-78.4zm8.3 76.8-9.9-74.6-13.3 1.9 9.9 74.6zm67.7-84.9 7.8 1.7-67.7 46.9-7.9-1.7zm-67.8 46.9 7.9 1.7 77.5 26.5-7.9-1.7z" class="st6"/><path d="m187.4 307.2 7.8 1.7 9.8 73.4-7.9-1.7zm0 0 9.7 73.4-77.5-26.5z" class="st7"/><path d="m188.9 303.8 7.8 1.8 10.6 79.6-7.9-1.8z" class="st6"/><path d="m116.5 353.9 72.4-50.1 10.6 79.6-82.7-28.3-1.3-.4zm80.6 26.7-9.8-73.4-67.7 46.9zm20.6-77.7 7.8 1.8 9.7 73.4-7.8-1.8z" class="st6"/><path d="m295.2 329.4 7.8 1.7-67.8 47-7.8-1.8z" class="st7"/><path d="m217.7 302.9 7.8 1.8 77.5 26.4-7.8-1.7z" class="st7"/><path d="m217.7 302.9 77.5 26.5-67.8 46.9z" class="st7"/><path d="m299.4 328.8 7.8 1.8-73.5 50.8-7.8-1.7zm-84.1-28.7 7.9 1.7 84 28.8-7.8-1.8z" class="st6"/><path d="m215.4 300.1 84 28.7-73.5 50.9zm2.3 2.8 9.8 73.4 67.7-46.9zm104-14.6 7.8 1.7 9.8 73.4-7.8-1.7z" class="st6"/><path d="m399.2 314.7 7.8 1.8-67.7 46.9-7.8-1.7z" class="st7"/><path d="m321.7 288.3 7.8 1.7 77.5 26.5-7.8-1.8z" class="st7"/><path d="m321.7 288.3 77.5 26.4-67.7 47z" class="st7"/><path d="m319.4 285.4 7.8 1.8 80.8 27.6-7.8-1.8zm81.2 30.7 7.8 1.8-70.6 48.9-7.8-1.8z" class="st6"/><path d="m400.2 313 7.8 1.8.4 3.1-7.8-1.8z" class="st6"/><path d="m319.4 285.4 80.8 27.6.4 3.1L330 365zm12.1 76.3 67.7-46.9-77.5-26.5zm79.1-86.5 7.8 1.7-13.2 1.9-7.9-1.8zm-13.3 1.8 7.9 1.8 9.9 74.6-7.9-1.8z" class="st6"/><path d="m420.5 349.8 7.8 1.7-13.2 1.9-7.9-1.8z" class="st7"/><path d="m410.6 275.2 7.8 1.7 9.9 74.6-7.8-1.7z" class="st7"/><path d="m395.2 275.4 17-2.4 10.4 78.4-17 2.4-5-37.7-.4-3.1zm25.3 74.4-9.9-74.6-13.2 1.9 9.9 74.6z" class="st6"/><path d="m410.6 275.2 9.9 74.6-13.3 1.8-9.9-74.6z" class="st7"/><path d="m422.6 351.4 7.8 1.8-17 2.4-7.8-1.8z" class="st6"/><path d="m412.2 273 7.8 1.7 10.4 78.5-7.8-1.8z" class="st6"/><path d="m133.4 58.1 1.9-.3 1.9 13.8 6.6-.9.3 1.7-8.6 1.2zm13 8.7c.1 2 1.8 3.5 3.8 3.4.2 0 .4 0 .6-.1 1.1-.1 2.1-.5 3-1l.6 1.4q-1.65 1.05-3.6 1.2c-2.8.6-5.6-1.2-6.2-4.1-.1-.3-.1-.5-.1-.8-.5-3.4 1.1-6.3 4.4-6.7 2.6-.3 5 1.6 5.3 4.2v1.4zm5.8-2.3c0-1.6-1.3-2.9-2.9-2.9h-.4c-1.7.4-2.8 2-2.6 3.7zm5.7-8.6.4 3.2 2.9-.4.2 1.5-2.9.4.8 6c.2 1.4.7 2.1 1.8 1.9.4 0 .8-.2 1.2-.3l.3 1.5c-.5.3-1.1.5-1.7.5-.8.2-1.6 0-2.3-.5-.7-.7-1.2-1.7-1.2-2.8l-.8-6-1.7.2-.2-1.5 1.7-.3-.4-2.7zm24.2 4.2c-.4-2.1-.9-4.7-1.2-6.6-.3 1.9-.6 3.9-1.1 6.1l-1.7 7.9-1.5.2-3.5-7c-1-2.1-1.9-4-2.6-5.8.2 1.9.5 4.5.7 6.9l.5 6.7-1.9.3-1.1-15.6 2.5-.4 3.7 7.1c.9 1.8 1.7 3.4 2.3 5q.3-2.4.9-5.4l1.7-7.9 2.5-.3 3.1 15.3-1.9.3zm6.8.7c.1 2 1.8 3.5 3.8 3.4.2 0 .4 0 .6-.1 1.1-.1 2.1-.4 3-1l.5 1.4c-1.1.6-2.3 1.1-3.6 1.2-2.8.6-5.6-1.2-6.2-4.1-.1-.3-.1-.5-.1-.8-.5-3.3 1.1-6.3 4.4-6.7 2.6-.3 5 1.6 5.3 4.2v1.3zm5.8-2.3c0-1.6-1.3-2.9-2.9-2.9h-.3c-1.7.4-2.8 2-2.6 3.7zm8.1-10c1.3-.4 2.5-.7 3.9-.9 1.5-.3 3.1-.1 4.5.7 1 .7 1.7 1.8 1.8 3.1.2 1.2 0 2.5-.7 3.5-1.1 1.4-2.7 2.2-4.5 2.4-.5.1-1.1.1-1.6 0l.9 6.2-1.9.3zm3 7.2c.6.1 1.1.1 1.7 0 2.4-.3 3.7-1.7 3.4-3.9s-1.9-2.8-4.1-2.5c-.7.1-1.3.2-1.9.4zm8.9-9.9 1.9-.3 2.3 16.3-2 .3zm13.8 14.7-.3-1.4c-.6 1.2-1.8 2-3.2 2.1-1.7.4-3.4-.7-3.8-2.4 0-.1 0-.2-.1-.3-.4-2.7 1.8-4.5 6.1-5.1v-.2c0-1.3-1.1-2.3-2.3-2.3-.2 0-.4 0-.5.1-1 .1-2 .6-2.8 1.2L221 51c1-.8 2.2-1.3 3.5-1.5 2.1-.5 4.3.8 4.7 3 .1.3.1.6.1.9l.6 4.2c.1.9.3 1.8.6 2.6zm-1.1-5.6c-2.2.3-4.6 1-4.3 3.2.1 1 .9 1.7 1.9 1.7h.3c1.2-.1 2.2-1 2.4-2.2v-.7zm5.1-6.3 3.4 6.2c.3.7.8 1.5 1 2.2.1-.7.2-1.6.4-2.4l1.3-6.8 2.1-.3-1.9 8.3c-.9 4-1.6 6.1-2.8 7.5-.6.7-1.4 1.3-2.3 1.7l-.7-1.6c.6-.3 1.2-.7 1.6-1.2.6-.7 1.1-1.6 1.4-2.5.1-.2.1-.3.1-.5s-.1-.4-.2-.5l-5.5-9.7zm16.5-5-4.7.7-.2-1.7 11.4-1.6.3 1.7-4.7.7 1.9 13.8-1.9.3zm7.9-3.8 1.9-.3 1 6.9c.3-.6.7-1.2 1.3-1.6s1.2-.7 1.9-.9c1.5-.2 4 .4 4.6 4.2l.9 6.6-2 .3-.9-6.4c-.3-1.8-1.1-3.2-3-2.9-1.2.2-2.2 1.2-2.4 2.4-.1.3-.1.7 0 1l.9 6.7-2 .3zm15.4 9.2c.1 2 1.8 3.5 3.8 3.4.2 0 .4 0 .6-.1 1.1-.1 2.1-.5 3-1l.6 1.4q-1.65 1.05-3.6 1.2c-2.8.6-5.6-1.2-6.2-4.1-.1-.3-.1-.5-.1-.8-.5-3.4 1.1-6.3 4.4-6.7 2.6-.3 5 1.6 5.3 4.2v1.4zm5.8-2.2c0-1.6-1.3-2.9-2.9-2.9h-.4c-1.7.4-2.8 2-2.6 3.7zm22.3-3.3c-.4-2.1-.9-4.7-1.2-6.6-.3 1.9-.7 3.9-1.1 6.2l-1.7 7.9-1.5.2-3.5-7c-1-2.1-1.9-4-2.6-5.8.2 1.9.5 4.5.7 6.9l.5 6.7-1.9.3-1.1-15.6 2.5-.4 3.7 7.1c.9 1.8 1.7 3.4 2.3 5q.3-2.4.9-5.4l1.7-7.9 2.5-.4 3.1 15.3-1.9.3zm15.2 1.7c.2 1.1.3 2.1.5 3l-1.8.3-.4-1.8c-.6 1.4-1.9 2.4-3.4 2.6-1.8.2-4-.4-4.5-4.3l-.9-6.5 1.9-.3.9 6.1c.3 2.1 1.1 3.5 3 3.2 1.2-.2 2.1-1 2.4-2.2.1-.4.1-.7 0-1.1l-.9-6.8 1.9-.3zm3.2.4c.9.4 1.8.5 2.8.4 1.5-.2 2-1 1.9-1.9s-.8-1.4-2.4-1.8c-2.1-.4-3.2-1.4-3.4-2.7-.2-1.9 1.1-3.6 3-3.8h.4c.9-.2 1.9-.1 2.8.3l-.3 1.5c-.7-.3-1.6-.4-2.4-.3-1.2.2-1.8.9-1.6 1.8.1.8.8 1.2 2.4 1.6 2 .5 3.1 1.3 3.4 2.9.3 1.9-1 3.6-3.7 3.9-1.1.2-2.2.1-3.2-.3zm9.9-13.7c.1.7-.4 1.3-1.1 1.4s-1.3-.4-1.4-1.1.3-1.3 1-1.4h.1c.6-.1 1.3.3 1.4 1zm-.2 14.5L327 35.3l1.9-.3 1.6 11.1zm13.2-2.3c-.9.6-2 1-3.1 1.1-2.9.6-5.7-1.3-6.2-4.2 0-.2-.1-.4-.1-.7-.5-3.2 1.6-6.1 4.8-6.7.1 0 .3 0 .4-.1 1-.1 1.9-.1 2.9.2l-.2 1.6c-.8-.3-1.6-.3-2.4-.2-2.1.2-3.7 2.1-3.4 4.3 0 .2 0 .3.1.5.1 2.1 2 3.8 4.1 3.6h.4q1.35-.15 2.4-.9z" class="st7"/><path d="m157.5 157.3 7.8 1.8c-1 .9-1.7 2.2-1.6 3.5l-7.8-1.8c0-1.4.6-2.7 1.6-3.5" class="st2"/><path d="m155.9 160.8 7.8 1.8c.2.8.7 1.5 1.5 1.9l-7.8-1.8c-.8-.4-1.3-1.1-1.5-1.9m11.6-15.4 7.8 1.8-9.9 11.8-7.9-1.7z" class="st2"/><path d="m171.5 143.7 7.8 1.8q-.6-.15-1.2 0c-1.1.2-2.1.9-2.8 1.8l-7.8-1.8c.7-.9 1.7-1.5 2.8-1.8q.6-.15 1.2 0" class="st2"/><path d="m171.5 143.7 7.8 1.8c.5.1 1 .3 1.4.6l-7.7-1.8q-.75-.45-1.5-.6" class="st8"/><path d="m171.9 141.8 7.8 1.8c.7.2 1.4.5 2 .9l-7.8-1.8c-.7-.5-1.3-.8-2-.9m-7.7 71.9 7.8 1.8c-.2.3-1.7 1.9.7 4.5l-7.8-1.8c-2.5-2.6-1-4.3-.7-4.5m22.6-30.5 7.9 1.8-1.2 1.5-7.9-1.8zm.4 2.6 7.8 1.8-23 27.8-7.8-1.8z" class="st2"/><path d="m164.9 218.1 7.8 1.8 13.9 9.6-7.9-1.8z" class="st2"/><path d="m188 230.1-7.8-1.8c-.5-.1-1-.3-1.4-.7l7.8 1.8c.4.4.9.6 1.4.7" class="st2"/><path d="m188 230.1-7.8-1.8c.4.1.9.1 1.3 0 1.3-.3 2.5-1 3.3-2l7.8 1.7c-.8 1.1-2 1.8-3.4 2-.4.2-.8.2-1.2.1" class="st9"/><path d="m187.6 232-7.8-1.8c.6.1 1.3.1 1.9 0 1.7-.3 3.3-1.2 4.4-2.6l7.8 1.8c-1.1 1.4-2.7 2.3-4.4 2.6-.6.1-1.3.1-1.9 0" class="st2"/><path d="m172.9 144.3 7.8 1.7 31.6 17.9-7.9-1.7z" class="st8"/><path d="m205.7 160.7 7.8 1.7-1.2 1.5-7.9-1.7z" class="st2"/><path d="m173.9 142.6 7.8 1.8 31.8 18-7.8-1.7z" class="st2"/><path d="m187.2 185.8 22.4 15.5-24.8 25.1c-.8 1-2 1.8-3.3 2-1 .1-1.9-.1-2.7-.7l-13.9-9.7c-2.5-2.5-.9-4.2-.7-4.5z" class="st9"/><path d="m187.2 185.8 7.8 1.8 22.4 15.5-7.8-1.8z" class="st9"/><path d="m209.6 201.3 7.8 1.8-24.8 25-7.8-1.7z" class="st9"/><path d="m211.2 202.4 7.8 1.8-25 25.3-7.8-1.8zm-24.4-19.2 7.9 1.8 25.7 17.8-7.8-1.7z" class="st2"/><path d="m186.9 183.2 25.7 17.8-1.4 1.4-25.1 25.3c-1.1 1.4-2.7 2.3-4.4 2.6-1.5.2-3-.2-4.1-1.1l-13.9-9.7c-1.2-1.1-2-2.6-2.1-4.3 0-1.1.4-2.2 1.2-3l22.9-27.6zm-2.1 43.2 24.8-25.1-22.4-15.5-23 27.9c-.2.3-1.8 1.9.7 4.5l13.9 9.7c.8.6 1.7.9 2.7.7 1.3-.3 2.5-1 3.3-2" class="st2"/><path d="m212.6 201.1 7.8 1.7-1.4 1.4-7.8-1.8z" class="st2"/><path d="m204.4 162.2 7.9 1.7 29.9 17.1-7.8-1.7z" class="st8"/><path d="m207.3 161.7 7.8 1.7 26.8 15.2-7.8-1.7zm28.6 16.1 7.8 1.8-1.4 1.4-7.8-1.8zm26.4-85.6 7.8 1.8-4.6 7-7.9-1.8z" class="st2"/><path d="m264.1 93 7.8 1.8-6.4 6.2-7.9-1.8z" class="st2"/><path d="m264 93.1 7.9 1.8-56.8 68.5-7.8-1.7zm9.7.6-.6.3-7.8-1.8.6-.3z" class="st2"/><path d="M273.7 93.7h-.2l-.5-.1h-.7l-1.4-.3-5.1-1.1c.3-.1.6-.3.9-.3l7.8 1.8c-.2-.1-.5-.1-.8 0" class="st2"/><path d="m267 91.6 7.8 1.8c-1.1.2-2.1.7-2.9 1.4l-7.8-1.8c.8-.7 1.8-1.2 2.9-1.4" class="st2"/><path d="M273.1 93.9c-.4.3-.9.6-1.3.9L264 93c.4-.3.8-.6 1.3-.9zm-4.8-2.3 7.8 1.8h-.2c-.4-.1-.8-.1-1.1 0l-7.8-1.8c.4-.1.7-.1 1.1 0z" class="st2"/><path d="m277 93.7-7.8-1.7c-.3-.1-.6-.2-.8-.3l7.8 1.8c.2 0 .5.1.8.2" class="st10"/><path d="m272.7 89.9 7.8 1.8c-1.1-.2-2.2-.3-3.2-.2h-.4l-7.8-1.8h.4c1-.1 2.1 0 3.2.2" class="st2"/><path d="M277 93.7c1.3.8 2.4 2 3 3.4l-7.8-1.8c-.6-1.4-1.7-2.6-3-3.3l6 1.4h.5l.5.1c.3 0 .5.1.8.2" class="st10"/><path d="m282.3 92.3-7.8-1.8-1.8-.6 7.8 1.8q.9.15 1.8.6" class="st11"/><path d="m269 89.8 7.8 1.8c2.2.8 4 2.5 4.9 4.8l-7.7-1.8c-.9-2.3-2.7-4-5-4.8" class="st2"/><path d="m282.3 92.3.5.2-7.8-1.8-.6-.2 7.2 1.6c.3.1.5.1.7.2" class="st11"/><path d="m273 88.1 7.8 1.8q1.35.3 2.7.9l-7.8-1.8q-1.35-.6-2.7-.9" class="st2"/><path d="m272.1 95.3 7.9 1.8 5 37.7-7.8-1.7z" class="st10"/><path d="m277.2 133.1 7.8 1.7-43.1 43.8-7.8-1.7zm-10.4-41.5c.4-.1.9-.1 1.3 0 1.9.6 3.3 1.9 4.1 3.7l5 37.7-43.1 43.8-26.7-15.2L264.1 93c.8-.6 1.7-1.1 2.7-1.4" class="st10"/><path d="m277.2 133.1 7.8 1.7.3 2.4-7.8-1.7z" class="st2"/><path d="m277.5 135.5 7.8 1.7-41.6 42.4-7.8-1.8z" class="st2"/><path d="m234.4 179.3 7.8 1.7 52.9 29.9-7.8-1.7z" class="st8"/><path d="m235.9 177.8 7.8 1.8 51.1 28.9-7.8-1.7z" class="st2"/><path d="m275 90.7 7.9 1.8 35.6 11.6-7.9-1.8z" class="st11"/><path d="m310.7 102.3 7.8 1.8c2.6.5 4.7 2.6 5.2 5.2l-7.8-1.8c-.5-2.6-2.6-4.6-5.2-5.2" class="st11"/><path d="m310.7 102.3 7.8 1.8zM287 206.8l7.8 1.7.3 2.4-7.8-1.7zm-3.7 45.3 7.8 1.7 1.5 1.4-7.8-1.8z" class="st2"/><path d="m285.9 252.1 7.9 1.8-2.7-.1-7.8-1.7zm-128.6-89.3 7.9 1.7 129 89.4-7.9-1.8z" class="st2"/><path d="m286.4 252.1 7.8 1.8h-.4l-7.8-1.8z" class="st2"/><path d="m294.2 253.9-.4-.1-.9-.2-2.5-.6-3.9-.9c.5 0 1 0 1.4-.1l7.8 1.8c-.4.1-1 .1-1.5.1m1.4-.1-7.8-1.8z" class="st8"/><path d="m297.1 255.6-7.8-1.8h-.3l7.8 1.8z" class="st2"/><path d="m287.3 209.2 7.8 1.7 5 37.2-7.9-1.7zm12.6 41.6c-.7 1.8-2.3 3-4.2 3l-7.8-1.8c1.9 0 3.6-1.2 4.2-3z" class="st8"/><path d="m292.3 246.4 7.8 1.8c.1.9 0 1.8-.2 2.6l-7.8-1.8c.3-.8.3-1.7.2-2.6" class="st8"/><path d="m273.9 94.6 7.9 1.7L302 247.9l-7.9-1.8zm20.2 151.5 7.8 1.8c.2 1.2.1 2.4-.3 3.5-.7 2.2-2.6 3.8-4.8 4.2l-7.8-1.8c2.2-.4 4.1-2 4.8-4.2.4-1.1.5-2.3.3-3.5" class="st2"/><path d="m297.1 255.6-7.8-1.8c.7.2 1.4.2 2.1.1.4-.1.8-.1 1.1-.3l7.8 1.8c-.4.1-.7.2-1.1.3-.6.1-1.4 0-2.1-.1m31.2-26.4 7.8 1.7-35.7 24.5-7.9-1.8zm-12.4-121.7 7.8 1.8 15.2 114.5-7.8-1.8z" class="st11"/><path d="M338.9 223.8c0 .2 1 3.6-2.8 7.1l-6.9-1.6-.9-.2c3.9-3.5 2.9-7 2.8-7.1z" class="st11"/><path d="M269.4 89.8c1.9-.2 3.9.1 5.6 1l35.6 11.6c2.6.5 4.7 2.6 5.2 5.2L331 222.1c0 .2 1 3.6-2.8 7.1l-35.7 24.5c-.4.1-.7.2-1.1.3-.8.1-1.6.1-2.4-.2 2.2-.4 4.1-2 4.8-4.2.3-1.1.4-2.3.3-3.5L274 94.9c-.9-2.3-2.7-4.2-5-5.1z" class="st11"/><path d="M333 221.6s1.3 4.6-3.5 9.1l-36 24.6c-.6.3-1.2.4-1.8.5-2.1.3-4.3-.3-5.9-1.6l-.9-.8-1.5-1.3h3.1c.5 0 1 0 1.4-.1 1.9 0 3.6-1.2 4.2-3 .3-.9.3-1.8.2-2.6l-4.9-37.2-.3-2.4-9.5-71.3-.3-2.4-5-37.7c-.7-1.8-2.2-3.2-4.1-3.7-.4-.1-.7-.1-1.1 0-1.1.2-2.1.7-2.9 1.4l-6.4 6.2 4.6-6.9.3-.5c1.6-2.1 4-3.5 6.6-3.9 2.2-.3 4.5.1 6.5 1.1l35.4 11.6c3.4.7 6.1 3.4 6.7 6.8zm-4.7 7.6c3.9-3.5 2.9-7 2.8-7.1l-15.2-114.5c-.5-2.6-2.6-4.7-5.2-5.2l-35.6-11.6c-1.7-.9-3.7-1.2-5.6-1h-.5c2.2.8 4 2.5 4.9 4.8L294.1 246c.2 1.2.1 2.4-.3 3.5-.7 2.2-2.5 3.8-4.8 4.2.8.2 1.6.3 2.4.2.4-.1.8-.1 1.1-.3z" class="st2"/><path d="m262.3 92.3-4.7 6.9L264 93c.8-.7 1.7-1.2 2.8-1.4-1 .3-2 .8-2.8 1.5l-56.6 68.6 26.7 15.2 43.1-43.8.3 2.4-41.6 42.3-1.4 1.4-30.1-17 1.3-1.5zm13.4-3.4 7.9 1.8 35.4 11.5-7.9-1.8zm-39.8 88.9 51.1 29 .3 2.4-52.8-30zm75.4-77.3 7.8 1.8c3.4.7 6 3.4 6.5 6.8l-7.8-1.8c-.6-3.4-3.2-6.1-6.5-6.8" class="st2"/><path d="m157.4 162.8 129 89.4h-3.1l1.5 1.3-73.5-51 1.4-1.4-25.7-17.8-1.2 1.5-29.2-20.2c-1.2-.7-2.1-1.9-2.4-3.3-.1-2 .7-3.9 2.1-5.1l9.9-11.8c1-1.3 2.4-2.2 4-2.5 1.4-.2 2.7.2 3.9 1l31.8 18-1.3 1.5-31.6-18.1c-.7-.5-1.7-.8-2.6-.7-1.1.2-2.1.9-2.8 1.8l-10 11.9c-1 .9-1.7 2.2-1.6 3.5.1.8.6 1.5 1.4 2" class="st2"/><path d="M170.3 143.6c.9-.1 1.8.1 2.6.7l31.6 17.9 30 17.1 52.9 29.9 5 37.2c.1.9.1 1.8-.2 2.6-.7 1.8-2.3 3-4.2 3-.5.1-1 .1-1.4.1l-129-89.3c-.8-.4-1.3-1.2-1.6-2 0-1.4.6-2.7 1.6-3.5l10-11.9c.6-.9 1.6-1.5 2.7-1.8" class="st8"/><path d="m296.7 257.5-7.8-1.8q1.35.3 2.7 0c.6-.1 1.3-.2 1.8-.5l7.8 1.8c-.6.3-1.2.4-1.8.5q-1.35.15-2.7 0" class="st2"/><path d="m329.4 230.7 7.9 1.7-36 24.7-7.9-1.8zm-11.6-123.4 7.8 1.7 15.2 114.4-7.8-1.8z" class="st2"/><path d="m333 221.6 7.8 1.8s1.4 4.6-3.5 9.1l-7.8-1.8c4.8-4.5 3.5-9 3.5-9.1" class="st2"/></svg>