<svg xmlns="http://www.w3.org/2000/svg" viewBox="0 0 512 222.1"><path fill="#fff" d="m89 111.2 4.6 52-4.6 54.5c-.2 2-1.8 3.5-3.5 3.5-1.8 0-3.4-1.5-3.4-3.5l-4.5-54.6 4.5-52a3.44 3.44 0 0 1 3.4-3.4c1.8.1 3.3 1.7 3.5 3.5m17.2-36.5c-2.2 0-3.8 1.8-4 4l-4 84.4 4 54.6c.2 2.2 1.8 4 4 4 2 0 3.8-1.8 3.8-4l4.6-54.6-4.6-84.4c-.1-2.2-1.8-4-3.8-4m20.3-19.2c-2.5 0-4.2 1.8-4.5 4.2l-3.5 103.9 3.5 54.2c.2 2.5 2 4.2 4.5 4.2 2.2 0 4.2-1.8 4.2-4.2l4.2-54.2-4.2-103.9c.1-2.5-1.9-4.2-4.2-4.2M5.8 132.7c-1.1 0-1.8.9-2 2L0 163.1l3.8 28c.2 1.1.9 2 2 2s1.8-.9 2-2l4.5-28-4.5-28.5c-.3-1-.9-1.9-2-1.9m18.8-17.5c-1.1 0-2 .9-2 2l-5.1 46 5.1 44.8c0 1.4.9 2.2 2 2.2s2-.9 2.2-2l5.8-45.1-5.8-46c-.2-1-1.1-1.9-2.2-1.9m20.2-9.1c-1.4 0-2.5 1.1-2.6 2.6l-4.6 54.4 4.6 52.6c.2 1.4 1.4 2.5 2.6 2.5 1.4 0 2.5-1.1 2.5-2.5l5.5-52.6-5.5-54.4c0-1.5-1.1-2.6-2.5-2.6m20.3-1.8c-1.5 0-2.9 1.1-2.9 2.9l-4.6 56 4.6 54.2c0 1.8 1.4 2.9 2.9 2.9s2.9-1.1 3.1-2.9l5.1-54.2-5.1-56c-.3-1.8-1.6-2.9-3.1-2.9m193.2-88.6c-.9-.6-2.2-1.1-3.4-1.1-1.8 0-3.4.6-4.5 1.5-1.5 1.4-2.5 3.4-2.6 5.4v.5l-2.6 141.2 1.4 26 1.4 25.3c.2 3.8 3.4 6.9 7.1 6.9 3.8 0 6.9-3.1 6.9-6.9l3.1-51.3L262 21.3c-.4-2.3-1.7-4.5-3.7-5.6m-21.6 12.2c-1.1-.6-2.2-1.1-3.5-1.1s-2.5.5-3.5 1.1c-1.8 1.1-2.9 3.1-2.9 5.4l-.9 1.4v128.5c-1.5 0-1.5.2 1 52.4v.2c-.1 1.4.4 2.6 1.3 3.8 1.4 1.5 3.1 2.5 5.1 2.5 1.8 0 3.4-.9 4.5-2 1.4-1.1 2-2.6 2-4.5l.2-5.4 2.5-46.8-2.6-130.1c-.3-2.3-1.5-4.3-3.2-5.4m-89.1 18c-2.5 0-4.6 2.2-4.6 4.9l-3.5 112.4 3.5 53.7c.2 2.6 2.2 4.6 4.6 4.6 2.6 0 4.6-2 4.9-4.6l4-53.7-4-112.4c-.1-2.7-2.1-4.9-4.9-4.9m301.6 50.3c-8.6 0-16.9 1.8-24.5 4.9C419.7 44.4 372.2 0 314.2 0c-14.2 0-28 2.6-40.2 7.5-4.9 1.8-6.2 3.5-6.2 7.4v199.6c0 4 3.1 6.9 6.9 7.4h174.5c34.6 0 62.8-28 62.8-62.6.1-34.9-28.1-63.1-62.8-63.1M211.6 47.9c-3.4 0-6 2.6-6.2 6.2l-2.6 109.3 2.6 52.4c.2 3.4 2.9 6 6.2 6 3.4 0 6-2.6 6-6l3.1-52.4-3.1-109.3c-.3-3.6-2.7-6.2-6-6.2m-42.9-6.3c-2.6 0-5.1 2.5-5.1 5.4l-3.1 116.1 3.1 53.5c.2 2.9 2.5 5.1 5.1 5.1 2.9 0 5.1-2.2 5.4-5.1l3.5-53.5L174.1 47c-.2-2.9-2.5-5.4-5.4-5.4m21.4 2.8c-3.1 0-5.5 2.5-5.5 5.5l-3.1 113.3 3.1 53.1c.2 3.1 2.5 5.5 5.5 5.5s5.5-2.5 5.5-5.5l3.4-53.1-3.4-113.3c0-3.1-2.4-5.5-5.5-5.5"/></svg>